<?xml version="1.0" encoding="UTF-8"?>
<svg xmlns="http://www.w3.org/2000/svg" viewBox="0 0 488.471 488.471" height="16" width="16">
  <!-- Bundled symbolic icon for LumenNode; Adwaita symbolic fill for GTK recoloring. -->
  <!-- Source: 004-brightness.svg -->
  <g fill="#2e3436">
  <path d="m244.236 366.354c-67.335 0-122.118-54.783-122.118-122.118s54.783-122.118 122.118-122.118 122.118 54.783 122.118 122.118-54.784 122.118-122.118 122.118zm0-213.705c-50.505 0-91.588 41.083-91.588 91.588s41.083 91.588 91.588 91.588 91.588-41.083 91.588-91.588-41.084-91.588-91.588-91.588z"/>
  <path d="m244.236 488.471c-3.906 0-7.811-1.491-10.793-4.472l-56.587-56.587h-100.532c-8.437 0-15.265-6.827-15.265-15.265v-100.532l-56.587-56.587c-5.963-5.963-5.963-15.622 0-21.585l56.587-56.587v-100.532c0-8.437 6.827-15.265 15.265-15.265h100.532l56.587-56.587c5.963-5.963 15.622-5.963 21.585 0l56.587 56.587h100.532c8.437 0 15.265 6.827 15.265 15.265v100.532l56.587 56.587c5.963 5.963 5.963 15.622 0 21.585l-56.587 56.587v100.532c0 8.437-6.827 15.265-15.265 15.265h-100.532l-56.587 56.587c-2.981 2.981-6.887 4.472-10.792 4.472zm-152.647-91.588h91.588c4.055 0 7.931 1.61 10.793 4.472l50.266 50.266 50.266-50.266c2.862-2.862 6.738-4.472 10.793-4.472h91.588v-91.588c0-4.055 1.61-7.93 4.472-10.793l50.266-50.266-50.266-50.266c-2.862-2.862-4.472-6.738-4.472-10.793v-91.588h-91.588c-4.055 0-7.93-1.61-10.793-4.472l-50.266-50.266-50.266 50.266c-2.862 2.862-6.738 4.472-10.793 4.472h-91.588v91.588c0 4.055-1.61 7.93-4.472 10.793l-50.267 50.266 50.266 50.266c2.862 2.862 4.472 6.738 4.472 10.793v91.588z"/>
  </g>
</svg>
