<?xml version="1.0" encoding="UTF-8"?>
<svg xmlns="http://www.w3.org/2000/svg" viewBox="0 0 51.751 51.75" height="16" width="16">
  <!-- Bundled symbolic icon for LumenNode; Adwaita symbolic fill for GTK recoloring. -->
  <!-- Source: 111012-photography/139-photo.svg (stacked photos / similar) -->
  <g fill="#2e3436">
    <path d="M43.258,3.932h-24.41c-2.812,0-5.307,1.38-6.852,3.494c1.402-1.028,3.129-1.643,5-1.643h24.411c4.685,0,8.496,3.811,8.496,8.495v17.404c0,1.871-0.615,3.598-1.646,5.002c2.112-1.547,3.494-4.039,3.494-6.852V12.428C51.754,7.744,47.941,3.932,43.258,3.932z"/>
    <path d="M48.572,15.609c0-4.686-3.812-8.497-8.496-8.497h-24.41c-2.699,0-5.094,1.28-6.65,3.25C4.025,10.492,0,14.584,0,19.606v18.958c0,5.104,4.15,9.254,9.256,9.254h11.576h3.439h11.575c5.105,0,9.254-4.149,9.254-9.254V19.606c0-5.104-4.148-9.256-9.254-9.256H9.255c-0.022,0-0.045,0.003-0.068,0.003c1.334-0.873,2.918-1.391,4.629-1.391h24.41c4.688,0,8.496,3.812,8.496,8.497v17.402c0,1.871-0.614,3.599-1.646,5.004c2.113-1.549,3.494-4.039,3.494-6.854V15.609H48.572z M35.848,13.126c3.574,0,6.48,2.907,6.48,6.479v18.959c0,3.572-2.906,6.48-6.48,6.48H24.272h-3.439H9.258c-3.574,0-6.48-2.908-6.48-6.48V19.606c0-3.572,2.906-6.479,6.48-6.479L35.848,13.126L35.848,13.126z"/>
    <path d="M3.842,38.565c0,2.986,2.43,5.416,5.414,5.416h11.576h3.439h11.575c2.984,0,5.414-2.43,5.414-5.416V19.607c0-2.984-2.43-5.414-5.414-5.414H9.255c-2.983,0-5.414,2.43-5.414,5.414L3.842,38.565L3.842,38.565z M5.228,19.606c0-2.22,1.807-4.025,4.026-4.025h26.593c2.222,0,4.024,1.806,4.024,4.025v18.958c0,2.221-1.809,4.027-4.024,4.027H24.271v-1.273c0.227-0.008,0.475-0.026,0.75-0.08c0.768-0.145,1.577-0.551,2.188-1.158c0.609-0.606,1.018-1.413,1.16-2.184c0.072-0.385,0.096-0.74,0.09-1.014c-0.004-0.27-0.033-0.451-0.033-0.451s-0.182-0.031-0.451-0.033c-0.271-0.006-0.631,0.016-1.014,0.088c-0.77,0.146-1.578,0.553-2.186,1.16c-0.189,0.193-0.354,0.41-0.504,0.633v-4.207c3.364-0.772,5.881-3.797,5.881-7.401v-6.844c0-0.461-0.275-0.877-0.703-1.058c-0.424-0.178-0.916-0.086-1.244,0.237l-2.596,2.528l-2.291-2.319c-0.219-0.221-0.493-0.328-0.83-0.34c-0.309,0.003-0.604,0.133-0.817,0.358l-2.265,2.398l-2.479-2.597c-0.322-0.338-0.82-0.446-1.254-0.273c-0.438,0.175-0.721,0.596-0.721,1.065v6.843c0,3.59,2.514,6.598,5.879,7.389V36.3c-0.137-0.199-0.281-0.39-0.451-0.562c-0.607-0.608-1.416-1.018-2.186-1.162c-0.386-0.069-0.742-0.094-1.017-0.086c-0.269,0.002-0.449,0.031-0.449,0.031s-0.03,0.184-0.032,0.451c-0.007,0.273,0.018,0.629,0.088,1.016c0.145,0.769,0.553,1.576,1.162,2.185c0.608,0.606,1.42,1.012,2.188,1.157c0.254,0.048,0.482,0.066,0.697,0.076v3.185H9.256c-2.221,0-4.027-1.808-4.027-4.027L5.228,19.606L5.228,19.606z"/>
  </g>
</svg>
