<?xml version="1.0" encoding="UTF-8"?>
<svg xmlns="http://www.w3.org/2000/svg" viewBox="0 0 510.003 510.003" height="16" width="16">
  <!-- Bundled symbolic icon for LumenNode; Adwaita symbolic fill for GTK recoloring. -->
  <!-- Source: 004-moon.svg -->
  <g fill="#2e3436">
  <path d="m197.644 415.464c-6.019-50.212-65.997-73.004-103.931-39.965-30.46-11.956-64.209 7.687-69.052 39.885-27.855 16.319-33.086 56.984-9.627 79.694 9.64 9.624 22.445 14.925 36.059 14.925h120c51.678-.482 69.962-67.855 26.551-94.539z"/>
  <path d="m479.661 67.788c-4.795-39.839-46.945-63.82-83.562-47.808-45.014-41.976-119.794-13.91-125.668 47.871-52.813 30.38-32.099 111.503 29.662 112.152h150c61.277-.298 82.834-81.61 29.568-112.215z"/>
  <path d="m313.723 285.553c-128.18 0-222.05-123.099-186.624-247.357l10.766-37.761-33.2 20.965c-111.428 70.364-138.591 221.227-58.304 325.888 13.387-5.087 27.62-6.455 41.329-4.315 51.714-30.773 120.58-4.6 137.079 55.365 10.724 9.476 18.816 21.715 23.298 35.408 91.625-9.632 166.941-74.918 191.541-161.254l10.76-37.764c-20.993 10.684-62.039 50.825-136.645 50.825z"/>
  </g>
</svg>
