<?xml version="1.0" encoding="UTF-8"?>
<svg xmlns="http://www.w3.org/2000/svg" viewBox="0 0 488.472 488.472" height="16" width="16">
  <!-- Bundled symbolic icon for LumenNode; Adwaita symbolic fill for GTK recoloring. -->
  <!-- Source: 030-grid.svg -->
  <g fill="#2e3436">
  <path d="m431.11 366.354h57.362v-30.529h-87.892z"/>
  <path d="m366.354 122.119v-91.589h-30.529v91.588h-148.95l30.529 30.529h118.421v118.421l30.529 30.529v-148.95h122.118v-30.529h-122.118z"/>
  <path d="m152.648 30.53h-30.529v26.832l30.529 30.529z"/>
  <path d="m.001 21.586 100.532 100.532h-100.532v30.529h122.118v183.176h-122.118v30.529h122.118v91.588h30.529v-91.588h183.176v91.588h30.529v-70.003l100.532 100.532 21.585-21.585-466.885-466.884zm152.647 314.24v-161.592l161.591 161.591c0 .001-161.591.001-161.591.001z"/>
  </g>
</svg>
