<?xml version="1.0" encoding="UTF-8"?>
<svg xmlns="http://www.w3.org/2000/svg" viewBox="0 0 32 32" height="16" width="16">
  <!-- Bundled symbolic icon for LumenNode; Adwaita symbolic fill for GTK recoloring. -->
  <!-- Source: 001-image.svg -->
  <g fill="#2e3436">
  <circle cx="13" cy="10" r="3"/>
  <path d="m19.29 12.29-6.29 6.3-3.29-3.3a1 1 0 0 0 -1.42 0l-2.29 2.3v8.41h20v-8.41l-5.29-5.3a1 1 0 0 0 -1.42 0z"/>
  <path d="m27 2h-22a3 3 0 0 0 -3 3v22a3 3 0 0 0 3 3h22a3 3 0 0 0 3-3v-22a3 3 0 0 0 -3-3zm1 25a1 1 0 0 1 -1 1h-22a1 1 0 0 1 -1-1v-22a1 1 0 0 1 1-1h22a1 1 0 0 1 1 1z"/>
  </g>
</svg>
