<?xml version="1.0" encoding="UTF-8"?>
<svg xmlns="http://www.w3.org/2000/svg" viewBox="0 0 512.007 512.007" height="16" width="16">
  <!-- Bundled symbolic icon for LumenNode; Adwaita symbolic fill for GTK recoloring. -->
  <!-- Source: 018-magnifier.svg -->
  <g fill="#2e3436">
  <path d="m420.932 122.156c0-16.855-13.645-30.51-30.51-30.51-27.125 0-40.774 32.909-21.57 52.08 19.089 19.123 52.08 5.549 52.08-21.57z"/>
  <path d="m475.822 36.166c-56.155-56.155-150.005-45.48-192.05 22.04l-67.97 109.17c71.859-5.011 133.697 55.482 128.8 128.81 115.105-71.659 117.82-72 131.42-85.6 48.03-48.03 47.95-126.28-.2-174.42zm-145.91 85.99c0-53.795 65.232-80.857 103.3-42.79 23.636 23.637 23.653 61.927 0 85.58-38.234 38.234-103.3 10.644-103.3-42.79z"/>
  <path d="m204.602 199.096c-20.047 4.269-26.807 10.178-71.19 37.82l8.59 12.87c8.03 12.03 6.41 28.2-3.84 38.45-14.086 14.135-37.868 11.133-47.97-6.24l-7.78-13.32c-26.449 16.448-48.525 27.551-66.23 58.73 6.824 6.824 157.955 157.955 168.42 168.42 17.591-10.014 32.651-24.382 43.7-42.14 80.772-129.716 77.285-122.506 81.85-136.24 22.407-67.119-36.78-132.878-105.55-118.35zm29.9 99.59-21.21-21.21c5.143-5.143 15.82-15.82 21.37-21.37 12.056 12.057 9.147 9.146 21.21 21.21z"/>
  <path d="m3.992 357.646c-23.262 91.206 59.304 173.643 150.38 150.38-3.116-3.118-124.099-124.119-150.38-150.38z"/>
  </g>
</svg>
