<?xml version="1.0" encoding="UTF-8"?>
<!--
  LumenNode application icon.
  Glyph adapted from Flaticon pack 4211557 (photo-editing) 032-gallery.svg
  (Freepik / Flaticon free license with attribution).
-->
<svg xmlns="http://www.w3.org/2000/svg" viewBox="0 0 128 128" width="128" height="128">
  <!-- Navy plate (#253b56): reads as “lumen” / light on dark and light panels -->
  <rect width="128" height="128" rx="28" fill="#253b56"/>
  <!-- Gallery glyph (32×32 design space), white, padded -->
  <g fill="#ffffff" transform="translate(16 16) scale(3)">
    <path d="m26 23v-18a3 3 0 0 0 -3-3h-18a3 3 0 0 0 -3 3v18a3 3 0 0 0 3 3h18a3 3 0 0 0 3-3zm-22 0v-18a1 1 0 0 1 1-1h18a1 1 0 0 1 1 1v18a1 1 0 0 1 -1 1h-18a1 1 0 0 1 -1-1z"/>
    <path d="m29 6a1 1 0 0 0 -1 1v20a1 1 0 0 1 -1 1h-20a1 1 0 0 0 0 2h20a3 3 0 0 0 3-3v-20a1 1 0 0 0 -1-1z"/>
    <circle cx="11" cy="8.5" r="2.5"/>
    <path d="m16.29 11.29-5.29 5.3-2.29-2.3a1 1 0 0 0 -1.42 0l-1.29 1.3v6.41h16v-6.41l-4.29-4.3a1 1 0 0 0 -1.42 0z"/>
  </g>
</svg>
